<svg width="300" height="180" xmlns="http://www.w3.org/2000/svg">
  <rect width="300" height="180" fill="#F6F0E5"/>
  <!-- Row 1: text left, image right -->
  <rect x="12" y="16" width="90" height="11" rx="2" fill="#171716" opacity="0.75"/>
  <rect x="12" y="34" width="118" height="6" rx="1.5" fill="#171716" opacity="0.25"/>
  <rect x="12" y="44" width="110" height="6" rx="1.5" fill="#171716" opacity="0.25"/>
  <rect x="12" y="54" width="115" height="6" rx="1.5" fill="#171716" opacity="0.25"/>
  <rect x="152" y="12" width="136" height="78" rx="5" fill="#C4B7B1"/>
  <rect x="186" y="36" width="68" height="52" rx="3" fill="#171716" opacity="0.08"/>
  <path d="M194 78 l22 -20 l14 14 l10 -10 l16 18" stroke="#171716" stroke-width="1.5" fill="none" opacity="0.18"/>
  <!-- Divider -->
  <rect x="12" y="96" width="276" height="1" fill="#171716" opacity="0.07"/>
  <!-- Row 2: image left, text right -->
  <rect x="12" y="102" width="136" height="68" rx="5" fill="#C4B7B1"/>
  <rect x="44" y="122" width="72" height="48" rx="3" fill="#171716" opacity="0.08"/>
  <path d="M52 162 l20 -18 l12 12 l10 -10 l14 16" stroke="#171716" stroke-width="1.5" fill="none" opacity="0.18"/>
  <rect x="160" y="108" width="84" height="11" rx="2" fill="#171716" opacity="0.75"/>
  <rect x="160" y="126" width="118" height="6" rx="1.5" fill="#171716" opacity="0.25"/>
  <rect x="160" y="136" width="110" height="6" rx="1.5" fill="#171716" opacity="0.25"/>
  <rect x="160" y="146" width="115" height="6" rx="1.5" fill="#171716" opacity="0.25"/>
</svg>
