<svg id="Layer_1" data-name="Layer 1" xmlns="http://www.w3.org/2000/svg" viewBox="0 0 1843.27 231.52"><defs><style>.cls-1{fill:#fffcf7;}.cls-2{fill:#fa1414;}</style></defs><path class="cls-1" d="M265.19,92V220.69s-7.14,6.83-30.11,9.65A175.18,175.18,0,0,1,214,231.52a111,111,0,0,1-26.35-2.78c-21-5.12-30.09-17-30.09-32.18V92h30.09v94.66s1.39,31.86,47.44,18.86V92Z"/><path class="cls-1" d="M1143.61,92V220.69s-7.13,6.83-30.11,9.65a175,175,0,0,1-21.08,1.18,110.94,110.94,0,0,1-26.35-2.78c-21-5.12-30.09-17-30.09-32.18V92h30.09v94.66s1.39,31.86,47.43,18.86V92Z"/><path class="cls-1" d="M616.14,231.52V102.84s7.14-6.84,30.11-9.65A173.14,173.14,0,0,1,667.34,92a110.49,110.49,0,0,1,26.35,2.78c21,5.12,30.09,17,30.09,32.18V231.52H693.69V136.86S692.3,105,646.25,118V231.52Z"/><polygon class="cls-1" points="87.43 58.56 87.43 130.73 30.11 130.73 30.11 58.56 0 58.56 0 230.53 30.11 230.53 30.11 151.35 87.43 151.35 87.43 230.53 117.54 230.53 117.54 58.56 87.43 58.56"/><path class="cls-1" d="M363.85,111.35V92H339.42V55.57H309.31V92h-23.4v19.34h23.4v88.43c0,24.09,13.09,31.74,28.56,31.74s22.89-5.42,22.89-5.42V208.16c-8,2-13.05,1.82-16.21.61-4.76-1.92-5.13-9-5.13-9V111.35Z"/><path class="cls-1" d="M451,111.35V92H426.54V55.57H396.43V92H373v19.34h23.4v88.43c0,24.09,13.1,31.74,28.56,31.74s22.89-5.42,22.89-5.42V208.16c-8,2-13,1.82-16.21.61-4.76-1.92-5.13-9-5.13-9V111.35Z"/><path class="cls-1" d="M868.33,183V124.85S867,102.62,845.71,92c-6.66-3.31-15.29-5.5-26.46-5.5-12.14,0-21.39,2.36-28.45,5.87v-49H760.69V220.69s7.13,6.83,30.11,9.65a175.05,175.05,0,0,0,21.09,1.18c4.8,0,9.26-.22,13.4-.63C826.71,230.61,865.49,222.68,868.33,183ZM790.8,205.53v-88.3s4.11-11.14,20.41-11.14,27,12.79,27,29.9v50.68S836.84,218.53,790.8,205.53Z"/><path class="cls-1" d="M1543.65,183V124.85S1542.33,102.62,1521,92c-6.67-3.31-15.29-5.5-26.47-5.5-12.13,0-21.38,2.36-28.45,5.87v-49H1436V220.69s7.14,6.83,30.11,9.65a175.18,175.18,0,0,0,21.09,1.18c4.81,0,9.26-.22,13.4-.63C1502,230.61,1540.81,222.68,1543.65,183Zm-77.53,22.52v-88.3s4.12-11.14,20.41-11.14,27,12.79,27,29.9v50.68S1512.17,218.53,1466.12,205.53Z"/><path class="cls-1" d="M573.4,168.57a10.67,10.67,0,0,0,10.68-10.68V131.31a41.6,41.6,0,0,0-41.6-41.61H519.74A47.33,47.33,0,0,0,472.41,137v36.43a58.07,58.07,0,0,0,58.07,58.08H541.7a67.94,67.94,0,0,0,39.79-12.85L571,198.05a51.29,51.29,0,0,1-41,10.31c-24.75-4.32-27.84-30.51-27.84-30.51v-9.28Zm-71.5-19.18V137.64a30.93,30.93,0,0,1,30.93-30.93,23.49,23.49,0,0,1,23.51,23.5v19.18Z"/><path class="cls-1" d="M1678.56,168.57a10.67,10.67,0,0,0,10.67-10.68V131.31a41.6,41.6,0,0,0-41.6-41.61H1624.9A47.33,47.33,0,0,0,1577.57,137v36.43a58.07,58.07,0,0,0,58.07,58.08h11.21a68,68,0,0,0,39.8-12.85l-10.5-20.62a51.33,51.33,0,0,1-41.05,10.31c-24.75-4.32-27.84-30.51-27.84-30.51v-9.28Zm-71.51-19.18V137.64A30.93,30.93,0,0,1,1638,106.71a23.5,23.5,0,0,1,23.52,23.5v19.18Z"/><path class="cls-1" d="M1721.71,99.8V231.52h30.62V118.72a6.26,6.26,0,0,1,1.32-3.88c3.46-4.4,14.09-13.78,36.62-2.36l5.16-25.36s-41.35-7.5-70.65,7.68A5.65,5.65,0,0,0,1721.71,99.8Z"/><rect class="cls-1" x="1811.72" y="89.7" width="31.55" height="141.81"/><rect class="cls-1" x="1811.72" y="40.21" width="31.55" height="30.31"/><rect class="cls-1" x="1177.02" y="137.47" width="67.64" height="26.57"/><path class="cls-1" d="M1349,55.17h-26.4c-52.78,0-51.54,65.15-51.54,65.15v37.05c0,72.93,49.89,74.15,49.89,74.15h29.7s49.91-1.22,49.91-74.15V120.32S1401.79,55.17,1349,55.17Zm21,110.31s-2,43.18-23.92,43.18h-20.62c-22,0-23.92-43.18-23.92-43.18V121.69c0-45.23,26.39-46.32,26.39-46.32h15.67s26.4,1.09,26.4,46.32Z"/><path class="cls-1" d="M974.94,89.18C950.4,79.7,913.7,92,913.7,92v21.71s26.39-9.69,38.35-6,20.52,13.2,20.52,16.29v21a393.71,393.71,0,0,0-39.7,3.76c-32,4.53-34.23,33.2-34.23,33.2v16.11c0,29.71,38.36,33.43,38.36,33.43h28.25c26.6,0,34.23-10.67,34.23-10.67V124S999.48,98.67,974.94,89.18Zm-2.37,117.36c-11.06,7.16-18.51,4.92-30.83,4.92-13.4,0-12.58-15.05-12.58-15.05V181.77c0-16.91,22.27-17.12,22.27-17.12h21.14Z"/><polygon class="cls-2" points="145.79 70.52 182.91 70.52 210.49 0 182.96 0 145.79 70.52"/><polygon class="cls-1" points="283.47 70.52 246.35 70.52 218.77 0 246.3 0 283.47 70.52"/></svg>